<svg
  xmlns="http://www.w3.org/2000/svg"
  viewBox="0 0 64 64"
  width="64"
  height="64"
  fill="#000000"
>
  <rect
    x="12"
    y="8"
    width="40"
    height="48"
    rx="6"
    ry="6"
    fill="#f8f8f8"
    stroke="#cccccc"
    stroke-width="2"
  />
  <path
    d="M12 8 L12 56 L22 56 L22 8 Z"
    fill="#ffffff"
    stroke="#cccccc"
    stroke-width="1"
  />
  <path
    d="M22 8 L42 8 L42 56 L22 56 Z"
    fill="#e6e6e6"
    stroke="#cccccc"
    stroke-width="1"
  />
  <path
    d="M42 8 L52 8 L52 56 L42 56 Z"
    fill="#ffffff"
    stroke="#cccccc"
    stroke-width="1"
  />
  <line
    x1="15"
    y1="12"
    x2="49"
    y2="12"
    stroke="#cccccc"
    stroke-width="0.5"
  />
  <line
    x1="15"
    y1="18"
    x2="49"
    y2="18"
    stroke="#cccccc"
    stroke-width="0.5"
  />
  <line
    x1="15"
    y1="24"
    x2="49"
    y2="24"
    stroke="#cccccc"
    stroke-width="0.5"
  />
  <line
    x1="15"
    y1="30"
    x2="49"
    y2="30"
    stroke="#cccccc"
    stroke-width="0.5"
  />
  <line
    x1="15"
    y1="36"
    x2="49"
    y2="36"
    stroke="#cccccc"
    stroke-width="0.5"
  />
  <line
    x1="15"
    y1="42"
    x2="49"
    y2="42"
    stroke="#cccccc"
    stroke-width="0.5"
  />
  <line
    x1="15"
    y1="48"
    x2="49"
    y2="48"
    stroke="#cccccc"
    stroke-width="0.5"
  />
</svg>
