<?xml version="1.0" encoding="utf-8"?>
<!-- Uploaded to: SVG Repo, www.svgrepo.com, Generator: SVG Repo Mixer Tools -->
<svg fill="#000000" height="800px" width="800px" version="1.1" id="Layer_1" xmlns="http://www.w3.org/2000/svg" xmlns:xlink="http://www.w3.org/1999/xlink" 
	 viewBox="0 0 64 64" enable-background="new 0 0 64 64" xml:space="preserve">
<path id="Syringe_2_" d="M52.1105995,6.0678749L41.8337059,0.1342749c-0.4800034-0.2773-1.0898056-0.1132-1.3662071,0.3663
	c-0.2759018,0.4785-0.1123009,1.0898,0.3662071,1.3662l4.2719994,2.4664998l-5.7371063,9.9364004l-8.1002998-4.6549006
	c-0.4765949-0.2733994-1.0894012-0.1103001-1.3652,0.3691006c-0.2749004,0.4785995-0.1098995,1.0899,0.3691006,1.3652992
	l2.9521999,1.6965008L17.299099,40.6294746c-0.5972004,1.035099-0.7558994,2.2402-0.4468002,3.3935013
	c0.3091011,1.1543007,1.0487995,2.1181984,2.0834999,2.7148972l1.2658005,0.7309036l-8.6784,15.0317993
	c-0.2758999,0.4785004-0.1122999,1.089798,0.3662004,1.3661995c0.1576996,0.0908012,0.3295994,0.1337967,0.4989996,0.1337967
	c0.3457003,0,0.6816998-0.1796989,0.8671999-0.4999962l8.6782007-15.0315018l1.1826,0.6828003
	c0.7173042,0.4141006,1.5014992,0.6113014,2.2758999,0.6113014c1.5795994,0,3.1181984-0.8193016,3.9644051-2.2831993
	l15.8912926-27.5249023l3.0242004,1.7378006c0.1567001,0.089901,0.3281021,0.1327991,0.4971008,0.1327991
	c0.346199,0,0.6830978-0.1795998,0.8680992-0.5018997c0.2749023-0.4784985,0.1099014-1.0898991-0.3690987-1.3652
	l-8.1653023-4.6921997l5.7350998-9.9328003l4.2725029,2.4668002c0.1576996,0.0907998,0.3295975,0.1336999,0.4990005,0.1336999
	c0.3456993,0,0.6815987-0.1787,0.8671989-0.5C52.7527046,6.955575,52.5890999,6.344275,52.1105995,6.0678749z
	 M39.0057983,26.7668743l-4.2727013-2.4664993c-0.4799004-0.2763996-1.089798-0.1114006-1.3661995,0.3661995
	c-0.2757988,0.4785004-0.1117973,1.0897999,0.3661995,1.3662014L38.0056,28.4991741l-1.9703026,3.4130001l-4.272398-2.4662991
	c-0.4804001-0.2763996-1.0897999-0.1114006-1.3661957,0.3661995c-0.2759056,0.4785004-0.111805,1.0897999,0.3661957,1.3661995
	l4.2721996,2.4661999l-1.9243011,3.3330994l-4.2736988-2.4662971c-0.4803944-0.277401-1.0902996-0.1113014-1.3661995,0.3661995
	c-0.2758007,0.4785004-0.1118011,1.089798,0.3661995,1.3661995l4.2736034,2.4660988l-2.0364037,3.5273018l-4.2733002-2.4680023
	c-0.4790001-0.2763977-1.0897999-0.1133003-1.3656998,0.3662033c-0.2763996,0.4784966-0.1128006,1.0898972,0.3656998,1.3661995
	l4.273201,2.4678993l-1.4494953,2.510601c-0.7089062,1.2246971-2.2827053,1.649498-3.5083046,0.9394989l-4.1811008-2.4141006
	c-0.5718002-0.3300018-0.9804993-0.8623009-1.1513996-1.5c-0.1704006-0.6376991-0.0825005-1.3036995,0.2476006-1.8759003
	l15.9159985-27.5674l8.5453987,4.9326L39.0057983,26.7668743z"/>
</svg>