<?xml version="1.0" encoding="iso-8859-1"?>
<!-- Uploaded to: SVG Repo, www.svgrepo.com, Generator: SVG Repo Mixer Tools -->
<!DOCTYPE svg PUBLIC "-//W3C//DTD SVG 1.1//EN" "http://www.w3.org/Graphics/SVG/1.1/DTD/svg11.dtd">
<svg fill="#000000" version="1.1" id="Capa_1" xmlns="http://www.w3.org/2000/svg" xmlns:xlink="http://www.w3.org/1999/xlink" 
	 width="800px" height="800px" viewBox="0 0 181.063 181.063"
	 xml:space="preserve">
<g>
	<path d="M163.493,118.145c-16.496-21.183-44.521-48.126-71.908-54.003c-1.932-0.415-3.439,0.325-4.345,1.51
		c4.622-19.383-4.335-36.952-18.909-49.828C56.232,5.135,34.861-4.887,18.772,2.596c-20.305,9.442-17.358,35.402-7.861,51.684
		c7.554,12.95,39.205,37.906,54.051,22.516c0.491,25.574,18.498,51.802,33.407,70.89c14.151,18.119,38.157,41.415,63.08,30.643
		C187.911,166.892,176.504,134.853,163.493,118.145z M157.046,170.794c-21.416,11.694-47.775-22.818-57.995-36.796
		c-12.099-16.544-27.158-39.004-29.286-59.961c-0.247-2.429-3.071-2.968-4.279-1.504c-6.157-2.317-13.182-1.314-19.674-3.028
		c-11.017-2.907-20.273-10.911-26.863-19.923C8.67,35.525,7.413,9.735,29.26,7.775c28.372-2.545,57.596,30.16,49.424,57.439
		c-1.432,4.781,5.347,7.055,7.618,3.373c0.058,1.595,0.973,3.147,3.012,3.791C113.74,80.102,203.365,145.501,157.046,170.794z"/>
	<path d="M22.082,18.453c-2.243,1.175-0.276,4.366,1.955,3.345c20.181-9.239,36.869,15.403,32.835,33.654
		c-3.259,0.445-6.46,1.14-9.728,1.674c-3.989,0.653-3.018,7.172,0.946,6.993c4.045-0.182,7.527-1.475,11.552-1.988
		c1.614-0.206,2.863-0.929,3.372-2.567C70.147,36.592,46.676,5.563,22.082,18.453z"/>
</g>
</svg>